<svg id="Layer_1" data-name="Layer 1" xmlns="http://www.w3.org/2000/svg" xmlns:xlink="http://www.w3.org/1999/xlink" viewBox="0 0 1350 350"><defs><style>.cls-1{fill:#00caca;}.cls-2{fill:url(#linear-gradient);}.cls-3,.cls-4{fill:#fff;}.cls-4{stroke:#fff;stroke-miterlimit:10;stroke-width:4px;}.cls-5{fill:#072654;}</style><linearGradient id="linear-gradient" x1="1056.76" y1="302.98" x2="1056.76" y2="127.87" gradientUnits="userSpaceOnUse"><stop offset="0" stop-color="#999"/><stop offset="1" stop-color="#fff"/></linearGradient></defs><title>Untitled-1</title><path class="cls-1" d="M1054.26,331.91a52.65,52.65,0,0,1-10.23-1c-34.79-7-58.13-50.51-50.44-94.11,3.65-20.73,12.61-36.93,26.46-48.78a3.67,3.67,0,0,0,1.36-3.75,108.69,108.69,0,0,1,.73-29.39c6.56-38.36,24.48-64.46,54.21-75.14,29.88-10.73,48.14-.39,69.63,28.19,1,1.26,1.63,1.53,2.94.9,11.63-5.67,23.62-7.08,35.81-4,30.66,7.75,52,39.51,53.46,79.15a4.5,4.5,0,0,0,1.68,3.69c21,18.48,30.83,43.93,27.68,76.12-3.88,39.67-30.24,68.16-61.76,68.17h-79.5C1099.66,332,1080.89,332,1054.26,331.91Z"/><circle class="cls-1" cx="1096.6" cy="156.2" r="80.62"/><polygon class="cls-2" points="1077.88 127.87 1077.88 255.67 1035.65 302.98 1035.65 127.87 1077.88 127.87"/><polygon class="cls-3" points="1253.92 60.56 1077.88 255.67 1035.65 302.98 1035.65 243.82 1077.88 196.49 1201.14 60.56 1253.92 60.56"/><polygon class="cls-3" points="1105.36 242.82 1159.49 303.5 1212.28 303.5 1131.75 213.24 1105.36 242.82"/><polygon class="cls-4" points="1275 16.03 1234.25 120.04 1221.28 74.31 1173.21 65.55 1275 16.03"/><polygon class="cls-5" points="1275 16.03 1234.25 120.04 1221.28 74.31 1253.42 36.15 1213.05 70.38 1173.21 65.55 1275 16.03"/><path class="cls-5" d="M206.93,122.74v31H75.43v-31Zm-82.29,146V175.37h31v93.34Z"/><path class="cls-5" d="M251.25,173.57l19.51,35-31.62,57.12-1.66,3H198.59l4.77-8.63Zm116.33,95.14H328.69l-1.66-3L297.92,213.1l-14.27-25.76-.56-1-19.51-35,.06-.12,1.56-2.81,12.69-22.93,1.5-3.22h7.44l1.44,3.21L301,148.36l61.84,111.72Z"/><path class="cls-5" d="M481.53,122.74v31H350v-31Zm-82.29,146V175.37h31v93.34Z"/><path class="cls-5" d="M649.73,224.33a44.35,44.35,0,0,1-44.37,44.38,47.11,47.11,0,0,1-5-.28,47.4,47.4,0,0,1-5,.28H518.23v-89h79.71a13.32,13.32,0,0,0,.82-25.92H549.24v0h-31V122.23H595.3a44.53,44.53,0,0,1,38.48,22.26c.13.21.25.42.36.64a44.46,44.46,0,0,1-.09,43.11,2.33,2.33,0,0,1-.2.34l0,.06v0c-.22.36-.43.72-.65,1.07.56.45,1.09.9,1.62,1.37a44.26,44.26,0,0,1,15,33.21ZM549.24,237.24h59.44a13.32,13.32,0,0,0-.32-25.88H549.24Z"/><path class="cls-5" d="M809.65,122.72v31H679.2v-31Zm-99.44,115h99.44v31H679.2V175.15l31,.19h86.43v31H710.21Z"/><path class="cls-5" d="M976.75,122.72v31H846.3v-31Zm-99.44,115h99.44v31H846.3V175.15l31,.19h86.42v31H877.31Z"/><path class="cls-5" d="M96.57,297.41q8.49,0,13.39,4.75t4.89,12.91a16.24,16.24,0,0,1-4.89,12.1A16.77,16.77,0,0,1,97.72,332H76V297.41ZM98,329a12.52,12.52,0,0,0,9.64-4.17,14.15,14.15,0,0,0,3.67-9.91,14.39,14.39,0,0,0-3.94-10.54,13.74,13.74,0,0,0-10.28-4h-18V329Z"/><path class="cls-5" d="M97.72,333H75V296.41H96.57c5.91,0,10.65,1.69,14.09,5s5.19,7.93,5.19,13.63a17.25,17.25,0,0,1-5.19,12.81A17.78,17.78,0,0,1,97.72,333ZM77,331H97.72a15.9,15.9,0,0,0,11.54-4.51,15.17,15.17,0,0,0,4.59-11.39c0-5.13-1.54-9.24-4.58-12.2s-7.33-4.46-12.7-4.46H77Zm21-1H78.1V299.37h19a14.77,14.77,0,0,1,11,4.32,15.45,15.45,0,0,1,4.22,11.24,15.13,15.13,0,0,1-3.94,10.58A13.51,13.51,0,0,1,98,330ZM80.1,328H98a11.45,11.45,0,0,0,8.9-3.85,13,13,0,0,0,3.41-9.23,13.34,13.34,0,0,0-3.65-9.84,12.69,12.69,0,0,0-9.57-3.72h-17Z"/><path class="cls-5" d="M131.56,332h-3.1V297.41h3.1Z"/><path class="cls-5" d="M132.56,333h-5.1V296.41h5.1Zm-3.1-2h1.1V298.41h-1.1Z"/><path class="cls-5" d="M186.69,314.83q-.52,6.9-3.54,10.71Q177.24,333,166,333q-8.73,0-14.51-4.77a17.59,17.59,0,0,1,0-27A21.86,21.86,0,0,1,166,296.31q10.89,0,17.37,7.26l-2.86,1.81A19.62,19.62,0,0,0,166,299.27a18.29,18.29,0,0,0-12.12,4.05,14.94,14.94,0,0,0-.53,22.45Q158.15,330,166,330a18.47,18.47,0,0,0,11.08-3.13,15.47,15.47,0,0,0,5.87-9.09H164.59v-3Z"/><path class="cls-5" d="M166,334c-6,0-11.13-1.68-15.14-5a18.59,18.59,0,0,1,0-28.56,23,23,0,0,1,15.1-5.1c7.52,0,13.61,2.55,18.12,7.59l.78.88-4.53,2.88-.57-.58a18.73,18.73,0,0,0-13.8-5.81,17.45,17.45,0,0,0-11.48,3.82A13.94,13.94,0,0,0,154,325c3,2.65,7.05,4,12,4a17.61,17.61,0,0,0,10.49-2.94,14.07,14.07,0,0,0,5.12-7.28h-18v-5h24.17l-.08,1.08c-.36,4.78-1.62,8.56-3.74,11.25C179.81,331.34,173.76,334,166,334Zm0-36.66A21,21,0,0,0,152.15,302a16.58,16.58,0,0,0-.05,25.47c3.65,3,8.32,4.55,13.87,4.55,7.16,0,12.67-2.37,16.4-7.05,1.72-2.17,2.8-5.22,3.22-9.09h-20v1H184.2l-.32,1.25a16.44,16.44,0,0,1-6.25,9.65A19.54,19.54,0,0,1,166,331c-5.44,0-9.92-1.51-13.3-4.49a15.93,15.93,0,0,1,.54-24A19.38,19.38,0,0,1,166,298.27a20.59,20.59,0,0,1,14.65,5.84l1.17-.74C177.76,299.35,172.45,297.31,166,297.31Z"/><path class="cls-5" d="M203.39,332h-3.1V297.41h3.1Z"/><path class="cls-5" d="M204.39,333h-5.1V296.41h5.1Zm-3.1-2h1.1V298.41h-1.1Z"/><path class="cls-5" d="M248.4,300.37H231.89V332h-3.11v-31.6H212.27v-3H248.4Z"/><path class="cls-5" d="M232.89,333h-5.1V301.37H211.27v-5H249.4v5H232.89Zm-3.11-2h1.11v-31.6H247.4v-1H213.27v1h16.51Z"/><path class="cls-5" d="M287.78,332h-3.56l-4.72-9H255.09l-4.8,9h-3.56L265,297.41h4.58ZM277.94,320l-10.38-19.62h-.46L256.66,320Z"/><path class="cls-5" d="M289.43,333h-5.81l-4.73-9h-23.2l-4.8,9h-5.82l19.34-36.55h5.79Zm-4.61-2h1.3L269,298.41h-3.38L248.39,331h1.31l4.8-9h25.6ZM279.6,321H255l11.5-21.62h1.66Zm-21.27-2h17.95l-8.95-16.92Z"/><path class="cls-5" d="M327,332H297.23V297.41h3.1V329H327Z"/><path class="cls-5" d="M328,333H296.23V296.41h5.1V328H328Zm-29.78-2H326v-1H299.34V298.41h-1.11Z"/><path class="cls-5" d="M383.67,300.37H367.16V332h-3.1v-31.6H347.54v-3h36.13Z"/><path class="cls-5" d="M368.16,333h-5.1V301.37H346.54v-5h38.13v5H368.16Zm-3.11-2h1.11v-31.6h16.51v-1H348.54v1h16.51Z"/><path class="cls-5" d="M429,332h-3.79l-10.7-14.18H395.65V332h-3.1V297.41h26.06a10.32,10.32,0,0,1,7.59,2.79,10.11,10.11,0,0,1,2.82,7.52,9.49,9.49,0,0,1-2.7,7.09c-1.8,1.76-4.37,2.76-7.71,3Zm-10.65-17.14a7.14,7.14,0,0,0,5.32-1.9,7.25,7.25,0,0,0,1.89-5.35q0-7.21-8.35-7.21H395.65v14.46Z"/><path class="cls-5" d="M431,333h-6.26L414,318.79H396.65V333h-5.1V296.41h27.06a11.32,11.32,0,0,1,8.29,3.08,11.11,11.11,0,0,1,3.12,8.23,10.5,10.5,0,0,1-3,7.8,11.81,11.81,0,0,1-6.58,3.07Zm-5.26-2h1.32l-10.32-14.06,1.82-.12a10.83,10.83,0,0,0,7.07-2.69,8.5,8.5,0,0,0,2.4-6.38,9.1,9.1,0,0,0-2.52-6.81,9.29,9.29,0,0,0-6.89-2.5H393.55V331h1.1V316.79H415Zm-7.36-15.14H394.65V299.37h22.58c7.72,0,9.35,4.46,9.35,8.21a8.28,8.28,0,0,1-2.18,6.06A8.16,8.16,0,0,1,418.37,315.83Zm-21.72-2h21.72a6.16,6.16,0,0,0,4.61-1.6,6.24,6.24,0,0,0,1.6-4.65c0-4.24-2.34-6.21-7.35-6.21H396.65Z"/><path class="cls-5" d="M478.08,332h-3.56l-4.72-9H445.4l-4.8,9H437l18.28-34.56h4.59ZM468.24,320l-10.38-19.62h-.46L447,320Z"/><path class="cls-5" d="M479.74,333h-5.82l-4.72-9H446l-4.8,9h-5.82l19.34-36.55h5.79Zm-4.61-2h1.3l-17.14-32.56h-3.38L438.69,331H440l4.8-9h25.61ZM469.9,321H445.3l11.5-21.62h1.66Zm-21.27-2h17.95l-8.95-16.92Z"/><path class="cls-5" d="M524.19,332h-4.42l-29.14-31.55V332h-3.1V297.41H492L521.09,329V297.41h3.1Z"/><path class="cls-5" d="M525.19,333h-5.86l-27.7-30v30h-5.1V296.41h5.93l27.63,30v-30h5.1Zm-3.1-2h1.1V298.41h-1.1Zm-1.88,0h1.37l-30-32.56h-1.44Zm-31.68,0h1.1V298.41h-1.1Z"/><path class="cls-5" d="M569.63,302.9a29.68,29.68,0,0,0-14.37-3.39c-4.29,0-7.58.58-9.85,1.74S542,304,542,306.17s1.1,3.58,3.29,4.47c2,.79,5.24,1.28,9.89,1.47q6,.24,8.06.48a20.42,20.42,0,0,1,6.11,1.38,7.78,7.78,0,0,1,5.06,7.69,9.19,9.19,0,0,1-4.6,8.18q-4.6,2.94-13.2,2.94-11.65,0-19-5.11l1.81-2.63a30.24,30.24,0,0,0,16.52,4.78q7.16,0,11-2.12t3.84-5.88a5.2,5.2,0,0,0-3.48-5q-3.1-1.38-10.55-1.71-5.49-.24-7.63-.48a21.88,21.88,0,0,1-5.69-1.14c-3.37-1.28-5.06-3.58-5.06-6.92a8.19,8.19,0,0,1,4.35-7.33c2.89-1.77,7-2.65,12.36-2.65q10.83,0,16.75,4Z"/><path class="cls-5" d="M556.6,333.78c-7.94,0-14.52-1.78-19.57-5.29l-.82-.57,2.93-4.23.81.51a29.47,29.47,0,0,0,16,4.62c4.58,0,8.12-.67,10.52-2,2.24-1.24,3.32-2.87,3.32-5a4.18,4.18,0,0,0-2.88-4.12c-2-.87-5.38-1.42-10.19-1.63-3.65-.16-6.24-.32-7.7-.48a23.17,23.17,0,0,1-5.94-1.21c-3.77-1.43-5.69-4.07-5.69-7.85a9.16,9.16,0,0,1,4.82-8.18c3-1.86,7.37-2.8,12.88-2.8,7.39,0,13.21,1.39,17.31,4.13l1,.65-3.51,3.82-.69-.37a28.79,28.79,0,0,0-13.89-3.27c-4.11,0-7.28.55-9.4,1.62-1.93,1-2.87,2.3-2.87,4s.85,2.8,2.67,3.54,5,1.22,9.55,1.4c4,.16,6.7.32,8.14.48a21.69,21.69,0,0,1,6.39,1.47,8.71,8.71,0,0,1,5.66,8.6,10.21,10.21,0,0,1-5.06,9C567.11,332.74,562.49,333.78,556.6,333.78ZM539,327.4c4.6,2.91,10.51,4.38,17.6,4.38,5.51,0,9.76-.94,12.66-2.78a8.2,8.2,0,0,0,4.14-7.34,6.79,6.79,0,0,0-4.46-6.77,19.72,19.72,0,0,0-5.81-1.31c-1.4-.16-4.09-.32-8-.47-4.81-.2-8.15-.7-10.22-1.55-3.24-1.31-3.91-3.65-3.91-5.39,0-2.52,1.33-4.48,4-5.81,2.41-1.23,5.88-1.85,10.31-1.85a31.14,31.14,0,0,1,14.16,3.15l.85-.93c-3.7-2.11-8.81-3.18-15.2-3.18-5.13,0-9.12.84-11.84,2.5a7.21,7.21,0,0,0-3.87,6.48c0,2.9,1.45,4.86,4.41,6a21.39,21.39,0,0,0,5.43,1.09c1.44.16,4,.32,7.59.47,5.13.23,8.7.82,10.9,1.8a6.19,6.19,0,0,1,4.08,5.95c0,2.89-1.46,5.16-4.35,6.75-2.7,1.49-6.57,2.25-11.49,2.25a31.33,31.33,0,0,1-16.23-4.43Z"/><path class="cls-5" d="M620,300.37H590.92v11.79h20.23v3H590.92V332h-3.11V297.41H620Z"/><path class="cls-5" d="M591.91,333h-5.1V296.41H621v5H591.91v9.79h20.24v5H591.91Zm-3.1-2h1.11V314.12h20.23v-1H589.92V299.37H619v-1H588.81Z"/><path class="cls-5" d="M666,314.64a16.78,16.78,0,0,1-6.39,13.6Q653.88,333,645.23,333t-14.46-4.73a17.56,17.56,0,0,1,.05-27.16,24.09,24.09,0,0,1,28.78,0A16.77,16.77,0,0,1,666,314.64Zm-3.29,0a14,14,0,0,0-5.63-11.53,20.23,20.23,0,0,0-23.77,0,15,15,0,0,0-.79,22.66q4.8,4.21,12.67,4.22t12.7-4.24A14.1,14.1,0,0,0,662.75,314.66Z"/><path class="cls-5" d="M645.23,334c-6,0-11.07-1.67-15.09-5a18.57,18.57,0,0,1,0-28.71,25.08,25.08,0,0,1,30.05,0,18.58,18.58,0,0,1,0,28.71A23.13,23.13,0,0,1,645.23,334Zm0-36.66a21.1,21.1,0,0,0-13.78,4.55,16.57,16.57,0,0,0-.05,25.61c3.66,3,8.31,4.5,13.83,4.5a21.13,21.13,0,0,0,13.79-4.5,16.58,16.58,0,0,0-.06-25.61A21,21,0,0,0,645.23,297.31Zm0,33.7c-5.48,0-10-1.5-13.33-4.47a16,16,0,0,1,.83-24.19,21.21,21.21,0,0,1,25,0,15.9,15.9,0,0,1,.86,24.18C655.2,329.5,650.71,331,645.23,331Zm0-30.74A17.63,17.63,0,0,0,634,303.91a14,14,0,0,0-.75,21.13c3,2.63,7,4,12,4s9-1.34,12-4a13.91,13.91,0,0,0-.77-21.11A17.83,17.83,0,0,0,645.23,300.27Z"/><path class="cls-5" d="M716.12,332h-3.79l-10.7-14.18H682.75V332h-3.1V297.41h26.06a10.32,10.32,0,0,1,7.59,2.79,10.11,10.11,0,0,1,2.82,7.52,9.49,9.49,0,0,1-2.7,7.09c-1.8,1.76-4.37,2.76-7.71,3Zm-10.65-17.14a7.14,7.14,0,0,0,5.32-1.9,7.25,7.25,0,0,0,1.89-5.35q0-7.21-8.35-7.21H682.75v14.46Z"/><path class="cls-5" d="M718.09,333h-6.26l-10.7-14.17H683.75V333h-5.1V296.41h27.06a11.32,11.32,0,0,1,8.29,3.08,11.11,11.11,0,0,1,3.12,8.23,10.5,10.5,0,0,1-3,7.8,11.81,11.81,0,0,1-6.58,3.07Zm-5.26-2h1.32l-10.32-14.06,1.82-.12a10.83,10.83,0,0,0,7.07-2.69,8.5,8.5,0,0,0,2.4-6.38,9.1,9.1,0,0,0-2.52-6.81,9.29,9.29,0,0,0-6.89-2.5H680.65V331h1.1V316.79h20.38Zm-7.36-15.14H681.75V299.37h22.58c7.72,0,9.35,4.46,9.35,8.21a8.28,8.28,0,0,1-2.18,6.06A8.16,8.16,0,0,1,705.47,315.83Zm-21.72-2h21.72a6.16,6.16,0,0,0,4.61-1.6,6.24,6.24,0,0,0,1.6-4.65c0-4.24-2.34-6.21-7.35-6.21H683.75Z"/><path class="cls-5" d="M774.78,332h-3.11V300.42h-.19L752.34,325l-19.18-24.62H733V332h-3.1V297.41h4.83l17.6,23,17.67-23h4.77Z"/><path class="cls-5" d="M775.77,333h-5.1V303.08l-18.33,23.59L734,303.14V333h-5.1V296.41h6.33l17.1,22.4,17.18-22.4h6.25Zm-3.1-2h1.11V298.41H770.5L752.34,322.1l-18.09-23.69h-3.34V331H732V299.42h1.49l.44.38,18.4,23.62,18.65-24h1.49l.19,1Z"/><path class="cls-5" d="M825.27,332h-3.56L817,323h-24.4l-4.8,9h-3.57l18.28-34.56h4.59ZM815.43,320l-10.38-19.62h-.46L794.16,320Z"/><path class="cls-5" d="M826.93,333h-5.82l-4.72-9H793.18l-4.8,9h-5.81l19.33-36.55h5.79Zm-4.61-2h1.3l-17.14-32.56h-3.37L785.88,331h1.31l4.8-9H817.6ZM817.09,321h-24.6L804,299.41h1.66Zm-21.27-2h18l-9-16.92Z"/><path class="cls-5" d="M860.55,300.37H844V332h-3.1v-31.6H824.41v-3h36.14Z"/><path class="cls-5" d="M845,333h-5.1V301.37H823.42v-5h38.13v5H845Zm-3.1-2H843v-31.6h16.52v-1H825.41v1h16.52Z"/><path class="cls-5" d="M872.53,332h-3.1V297.41h3.1Z"/><path class="cls-5" d="M873.53,333h-5.1V296.41h5.1Zm-3.11-2h1.11V298.41h-1.11Z"/><path class="cls-5" d="M927.08,314.64a16.78,16.78,0,0,1-6.39,13.6Q914.92,333,906.28,333t-14.47-4.73a17.58,17.58,0,0,1,.05-27.16,24.09,24.09,0,0,1,28.78,0A16.77,16.77,0,0,1,927.08,314.64Zm-3.29,0a14,14,0,0,0-5.63-11.53,20.23,20.23,0,0,0-23.77,0,15,15,0,0,0-.79,22.66q4.8,4.21,12.68,4.22c5.24,0,9.48-1.41,12.69-4.24A14.1,14.1,0,0,0,923.79,314.66Z"/><path class="cls-5" d="M906.28,334c-6,0-11.08-1.67-15.1-5a18.59,18.59,0,0,1,0-28.71,25.07,25.07,0,0,1,30,0,18.58,18.58,0,0,1,.05,28.71A23.12,23.12,0,0,1,906.28,334Zm0-36.66a21.11,21.11,0,0,0-13.79,4.55,16.57,16.57,0,0,0,0,25.61c3.66,3,8.31,4.5,13.84,4.5a21.13,21.13,0,0,0,13.78-4.5,16.57,16.57,0,0,0,0-25.61A21.06,21.06,0,0,0,906.28,297.31Zm0,33.7c-5.48,0-10-1.5-13.34-4.47a16,16,0,0,1,.83-24.19,21.22,21.22,0,0,1,25,0,15.91,15.91,0,0,1,.85,24.18C916.24,329.5,911.75,331,906.28,331Zm0-30.74A17.64,17.64,0,0,0,895,303.91a14,14,0,0,0-.75,21.13c3,2.63,7,4,12,4s9-1.34,12-4a13.91,13.91,0,0,0-.77-21.11A17.8,17.8,0,0,0,906.28,300.27Z"/><path class="cls-5" d="M977.34,332h-4.42l-29.13-31.55V332h-3.1V297.41h4.48L974.24,329V297.41h3.1Z"/><path class="cls-5" d="M978.34,333h-5.85l-27.7-30v30h-5.1V296.41h5.92l27.63,30v-30h5.1Zm-3.1-2h1.11V298.41h-1.11Zm-1.88,0h1.38l-30-32.56h-1.45Zm-31.67,0h1.1V298.41h-1.1Z"/></svg>